<?xml version="1.0" encoding="UTF-8" standalone="no"?>
<!-- Created with Inkscape (http://www.inkscape.org/) -->

<svg
   xmlns:dc="http://purl.org/dc/elements/1.1/"
   xmlns:cc="http://creativecommons.org/ns#"
   xmlns:rdf="http://www.w3.org/1999/02/22-rdf-syntax-ns#"
   xmlns:svg="http://www.w3.org/2000/svg"
   xmlns="http://www.w3.org/2000/svg"
   xmlns:xlink="http://www.w3.org/1999/xlink"
   xmlns:sodipodi="http://sodipodi.sourceforge.net/DTD/sodipodi-0.dtd"
   xmlns:inkscape="http://www.inkscape.org/namespaces/inkscape"
   width="210mm"
   height="297mm"
   viewBox="0 0 744.09448819 1052.3622047"
   id="svg5055"
   version="1.1"
   inkscape:version="0.91 r13725"
   sodipodi:docname="Rossoblu_Remixed_Footbolista.svg">
  <defs
     id="defs5057">
    <filter
       inkscape:collect="always"
       x="-0.071145996"
       y="-0.31303999"
       width="1.1423"
       height="1.6260999"
       id="filter3908">
      <feGaussianBlur
         inkscape:collect="always"
         stdDeviation="1.3231442"
         id="feGaussianBlur3910" />
    </filter>
    <filter
       inkscape:collect="always"
       x="-0.034419999"
       y="-0.10775"
       width="1.0688"
       height="1.2155"
       id="filter3950">
      <feGaussianBlur
         inkscape:collect="always"
         stdDeviation="0.52374457"
         id="feGaussianBlur3952" />
    </filter>
    <filter
       inkscape:collect="always"
       id="filter4013">
      <feGaussianBlur
         inkscape:collect="always"
         stdDeviation="2.2032005"
         id="feGaussianBlur4015" />
    </filter>
    <filter
       inkscape:collect="always"
       id="filter4043">
      <feGaussianBlur
         inkscape:collect="always"
         stdDeviation="2.1700697"
         id="feGaussianBlur4045" />
    </filter>
    <filter
       inkscape:collect="always"
       x="-0.13225"
       y="-0.11278"
       width="1.2645"
       height="1.2256"
       id="filter4192">
      <feGaussianBlur
         inkscape:collect="always"
         stdDeviation="4.5210431"
         id="feGaussianBlur4194" />
    </filter>
    <linearGradient
       inkscape:collect="always"
       x1="264.45001"
       y1="765.28003"
       x2="281.91"
       gradientUnits="userSpaceOnUse"
       y2="764.63"
       id="linearGradient4880">
      <stop
         offset="0"
         style="stop-color:#ffffff;stop-opacity:.875"
         id="stop4185" />
      <stop
         offset="1"
         style="stop-color:#ffffff;stop-opacity:0"
         id="stop4187" />
    </linearGradient>
    <filter
       inkscape:collect="always"
       x="-0.13669001"
       y="-0.10886"
       width="1.2733999"
       height="1.2177"
       id="filter6486">
      <feGaussianBlur
         inkscape:collect="always"
         stdDeviation="3.9881104"
         id="feGaussianBlur6488" />
    </filter>
    <filter
       inkscape:collect="always"
       x="-0.15266"
       y="-0.086153001"
       width="1.3053"
       height="1.1723"
       id="filter6622">
      <feGaussianBlur
         inkscape:collect="always"
         stdDeviation="1.7397777"
         id="feGaussianBlur6624" />
    </filter>
    <filter
       inkscape:collect="always"
       x="-0.10742"
       y="-0.14047"
       width="1.2148"
       height="1.2809"
       id="filter6482">
      <feGaussianBlur
         inkscape:collect="always"
         stdDeviation="1.2433792"
         id="feGaussianBlur6484" />
    </filter>
    <filter
       inkscape:collect="always"
       x="-0.12239"
       y="-0.10013"
       width="1.2448"
       height="1.2003"
       id="filter6546">
      <feGaussianBlur
         inkscape:collect="always"
         stdDeviation="2.2901164"
         id="feGaussianBlur6548" />
    </filter>
    <filter
       inkscape:collect="always"
       x="-0.13248999"
       y="-0.10307"
       width="1.265"
       height="1.2061"
       id="filter6582">
      <feGaussianBlur
         inkscape:collect="always"
         stdDeviation="1.8479047"
         id="feGaussianBlur6584" />
    </filter>
    <filter
       inkscape:collect="always"
       x="-0.20343"
       y="-0.17049"
       width="1.4069"
       height="1.341"
       id="filter6736">
      <feGaussianBlur
         inkscape:collect="always"
         stdDeviation="0.96665869"
         id="feGaussianBlur6738" />
    </filter>
    <filter
       inkscape:collect="always"
       id="filter4334">
      <feGaussianBlur
         inkscape:collect="always"
         stdDeviation="3.1323858"
         id="feGaussianBlur4336" />
    </filter>
    <filter
       inkscape:collect="always"
       id="filter4241">
      <feGaussianBlur
         inkscape:collect="always"
         stdDeviation="2.1578972"
         id="feGaussianBlur4243" />
    </filter>
    <filter
       inkscape:collect="always"
       x="-0.19495"
       y="-0.16667999"
       width="1.3899"
       height="1.3334"
       id="filter4494">
      <feGaussianBlur
         inkscape:collect="always"
         stdDeviation="2.6282869"
         id="feGaussianBlur4496" />
    </filter>
    <linearGradient
       inkscape:collect="always"
       x1="66.239998"
       y1="923.34003"
       x2="59.903999"
       gradientUnits="userSpaceOnUse"
       y2="868.88"
       id="linearGradient4884">
      <stop
         offset="0"
         style="stop-color:#ffffff"
         id="stop4428" />
      <stop
         offset="1"
         style="stop-color:#ffffff;stop-opacity:0"
         id="stop4430" />
    </linearGradient>
    <filter
       inkscape:collect="always"
       x="-0.2175"
       y="-0.22315"
       width="1.4349999"
       height="1.4463"
       id="filter4320">
      <feGaussianBlur
         inkscape:collect="always"
         stdDeviation="3.6222611"
         id="feGaussianBlur4322" />
    </filter>
    <linearGradient
       inkscape:collect="always"
       x1="242.35001"
       y1="1046.2"
       x2="181.32001"
       gradientUnits="userSpaceOnUse"
       y2="888.27002"
       id="linearGradient4886">
      <stop
         offset="0"
         style="stop-color:#000000"
         id="stop4327" />
      <stop
         offset="1"
         style="stop-color:#000000;stop-opacity:0"
         id="stop4329" />
    </linearGradient>
    <filter
       inkscape:collect="always"
       x="-0.21628"
       y="-0.26379001"
       width="1.4326"
       height="1.5276"
       id="filter4397">
      <feGaussianBlur
         inkscape:collect="always"
         stdDeviation="11.625989"
         id="feGaussianBlur4399" />
    </filter>
    <filter
       inkscape:collect="always"
       id="filter11175">
      <feGaussianBlur
         inkscape:collect="always"
         stdDeviation="2.0727618"
         id="feGaussianBlur11177" />
    </filter>
    <radialGradient
       inkscape:collect="always"
       r="99.346001"
       gradientTransform="matrix(1.1099,0.32561,-0.34601,1.1794,158.36,-182.58)"
       cx="241.06"
       cy="572.41998"
       gradientUnits="userSpaceOnUse"
       id="radialGradient4888">
      <stop
         offset="0"
         style="stop-color:#000000"
         id="stop11182" />
      <stop
         offset="1"
         style="stop-color:#000000;stop-opacity:0"
         id="stop11184" />
    </radialGradient>
    <filter
       inkscape:collect="always"
       id="filter9120">
      <feGaussianBlur
         inkscape:collect="always"
         stdDeviation="6.6916591"
         id="feGaussianBlur9122" />
    </filter>
    <filter
       inkscape:collect="always"
       x="-0.064631999"
       y="-0.10904"
       width="1.1293"
       height="1.2181"
       id="filter4785">
      <feGaussianBlur
         inkscape:collect="always"
         stdDeviation="2.5247131"
         id="feGaussianBlur4787" />
    </filter>
    <filter
       inkscape:collect="always"
       id="filter3583">
      <feGaussianBlur
         inkscape:collect="always"
         stdDeviation="5.5486347"
         id="feGaussianBlur3585" />
    </filter>
    <filter
       inkscape:collect="always"
       x="-0.099588998"
       y="-0.13872001"
       width="1.1992"
       height="1.2774"
       id="filter5435">
      <feGaussianBlur
         inkscape:collect="always"
         stdDeviation="3.0706522"
         id="feGaussianBlur5437" />
    </filter>
    <filter
       inkscape:collect="always"
       id="filter3736">
      <feGaussianBlur
         inkscape:collect="always"
         stdDeviation="2.1383854"
         id="feGaussianBlur3738" />
    </filter>
    <filter
       inkscape:collect="always"
       id="filter3723">
      <feGaussianBlur
         inkscape:collect="always"
         stdDeviation="1.7444835"
         id="feGaussianBlur3725" />
    </filter>
    <filter
       inkscape:collect="always"
       x="-0.15550999"
       y="-0.072131"
       width="1.311"
       height="1.1443"
       id="filter3710">
      <feGaussianBlur
         inkscape:collect="always"
         stdDeviation="3.3313555"
         id="feGaussianBlur3712" />
    </filter>
    <filter
       inkscape:collect="always"
       id="filter3584">
      <feGaussianBlur
         inkscape:collect="always"
         stdDeviation="0.95853723"
         id="feGaussianBlur3586" />
    </filter>
    <filter
       inkscape:collect="always"
       x="-0.20829"
       y="-0.14093"
       width="1.4166"
       height="1.2819"
       id="filter4466">
      <feGaussianBlur
         inkscape:collect="always"
         stdDeviation="1.5496781"
         id="feGaussianBlur4468" />
    </filter>
    <filter
       inkscape:collect="always"
       id="filter3437">
      <feGaussianBlur
         inkscape:collect="always"
         stdDeviation="0.57400851"
         id="feGaussianBlur3439" />
    </filter>
    <filter
       inkscape:collect="always"
       x="-0.23328"
       y="-0.049125001"
       width="1.4665999"
       height="1.0983"
       id="filter3467">
      <feGaussianBlur
         inkscape:collect="always"
         stdDeviation="0.5151322"
         id="feGaussianBlur3469" />
    </filter>
    <filter
       inkscape:collect="always"
       x="-0.21254"
       y="-0.069147997"
       width="1.4251"
       height="1.1382999"
       id="filter3513">
      <feGaussianBlur
         inkscape:collect="always"
         stdDeviation="3.4266547"
         id="feGaussianBlur3515" />
    </filter>
    <filter
       inkscape:collect="always"
       x="-0.32115999"
       y="-0.070739999"
       width="1.6423"
       height="1.1415"
       id="filter3547">
      <feGaussianBlur
         inkscape:collect="always"
         stdDeviation="0.59769081"
         id="feGaussianBlur3549" />
    </filter>
    <filter
       inkscape:collect="always"
       x="-0.11788"
       y="-0.26056001"
       width="1.2358"
       height="1.5211"
       id="filter3682">
      <feGaussianBlur
         inkscape:collect="always"
         stdDeviation="0.776065"
         id="feGaussianBlur3684" />
    </filter>
    <filter
       inkscape:collect="always"
       x="-0.41248"
       y="-0.61181998"
       width="1.825"
       height="2.2235999"
       id="filter4822">
      <feGaussianBlur
         inkscape:collect="always"
         stdDeviation="14.243998"
         id="feGaussianBlur4824" />
    </filter>
    <filter
       inkscape:collect="always"
       x="-0.024286"
       y="-0.12332"
       width="1.0486"
       height="1.2466"
       id="filter4918">
      <feGaussianBlur
         inkscape:collect="always"
         stdDeviation="0.51922911"
         id="feGaussianBlur4920" />
    </filter>
    <filter
       inkscape:collect="always"
       id="filter4725">
      <feGaussianBlur
         inkscape:collect="always"
         stdDeviation="4.0903011"
         id="feGaussianBlur4727" />
    </filter>
    <filter
       inkscape:collect="always"
       x="-0.057149999"
       y="-0.13996001"
       width="1.1143"
       height="1.2799"
       id="filter6225">
      <feGaussianBlur
         inkscape:collect="always"
         stdDeviation="1.4505144"
         id="feGaussianBlur6227" />
    </filter>
    <filter
       inkscape:collect="always"
       id="filter3350">
      <feGaussianBlur
         inkscape:collect="always"
         stdDeviation="0.43908812"
         id="feGaussianBlur3352" />
    </filter>
    <filter
       inkscape:collect="always"
       x="-0.072866"
       y="-0.12757"
       width="1.1457"
       height="1.2551"
       id="filter3385">
      <feGaussianBlur
         inkscape:collect="always"
         stdDeviation="1.1710844"
         id="feGaussianBlur3387" />
    </filter>
    <filter
       inkscape:collect="always"
       id="filter3346">
      <feGaussianBlur
         inkscape:collect="always"
         stdDeviation="0.44474638"
         id="feGaussianBlur3348" />
    </filter>
    <filter
       inkscape:collect="always"
       x="-0.093699999"
       y="-0.23107"
       width="1.1874"
       height="1.4621"
       id="filter3416">
      <feGaussianBlur
         inkscape:collect="always"
         stdDeviation="0.71006944"
         id="feGaussianBlur3418" />
    </filter>
    <linearGradient
       inkscape:collect="always"
       x1="202.09"
       y1="279.38"
       x2="198.03"
       gradientUnits="userSpaceOnUse"
       xlink:href="#linearGradient3422"
       y2="278.54999"
       id="linearGradient4890" />
    <linearGradient
       id="linearGradient3422">
      <stop
         offset="0"
         style="stop-color:#ffffff;stop-opacity:.82292"
         id="stop3424" />
      <stop
         offset="1"
         style="stop-color:#ffffff;stop-opacity:0"
         id="stop3426" />
    </linearGradient>
    <linearGradient
       inkscape:collect="always"
       x1="202.09"
       y1="279.38"
       gradientTransform="matrix(1.3309,-0.54733,0.56643,1.2861,-235.27,27.464)"
       x2="198.03"
       gradientUnits="userSpaceOnUse"
       xlink:href="#linearGradient3422"
       y2="278.54999"
       id="linearGradient4892" />
    <linearGradient
       inkscape:collect="always"
       x1="202.09"
       y1="279.38"
       gradientTransform="matrix(1.2868,-0.2022,0.24943,1.1263,-156.13,13.409)"
       x2="198.03"
       gradientUnits="userSpaceOnUse"
       xlink:href="#linearGradient3422"
       y2="278.54999"
       id="linearGradient4894" />
    <linearGradient
       inkscape:collect="always"
       x1="202.09"
       y1="279.38"
       gradientTransform="matrix(0.99486,0.10123,-0.10123,0.99486,37.78,-17.605)"
       x2="198.03"
       gradientUnits="userSpaceOnUse"
       xlink:href="#linearGradient3422"
       y2="278.54999"
       id="linearGradient4896" />
    <filter
       inkscape:collect="always"
       x="-0.050489001"
       y="-0.14854001"
       width="1.101"
       height="1.2970999"
       id="filter3507">
      <feGaussianBlur
         inkscape:collect="always"
         stdDeviation="1.2279544"
         id="feGaussianBlur3509" />
    </filter>
  </defs>
  <sodipodi:namedview
     id="base"
     pagecolor="#ffffff"
     bordercolor="#666666"
     borderopacity="1.0"
     inkscape:pageopacity="0.0"
     inkscape:pageshadow="2"
     inkscape:zoom="0.98994949"
     inkscape:cx="266.39462"
     inkscape:cy="620.97233"
     inkscape:document-units="px"
     inkscape:current-layer="layer1"
     showgrid="false"
     inkscape:window-width="1867"
     inkscape:window-height="1056"
     inkscape:window-x="53"
     inkscape:window-y="24"
     inkscape:window-maximized="1"
     showguides="true"
     inkscape:guide-bbox="true">
    <sodipodi:guide
       position="97.984798,1054.5993"
       orientation="0,1"
       id="guide3595" />
  </sodipodi:namedview>
  <metadata
     id="metadata5060">
    <rdf:RDF>
      <cc:Work
         rdf:about="">
        <dc:format>image/svg+xml</dc:format>
        <dc:type
           rdf:resource="http://purl.org/dc/dcmitype/StillImage" />
        <dc:title></dc:title>
      </cc:Work>
    </rdf:RDF>
  </metadata>
  <g
     inkscape:label="Livello 1"
     inkscape:groupmode="layer"
     id="layer1">
    <g
       id="g3597">
      <g
         id="g4047"
         transform="matrix(0.69354654,0,0,0.77500664,127.21891,47.038456)">
        <path
           inkscape:connector-curvature="0"
           id="path3170"
           sodipodi:nodetypes="cccczscccsccccccccccccc"
           style="fill:#d4a067;fill-rule:evenodd;stroke:#b88463;stroke-width:1px"
           d="m 478.52,315.59 c 14.63,3.49 29.26,3.11 43.89,12.66 31.55,25.16 63.65,44.69 104.19,65.35 12.1,1.69 28.87,6.38 40.97,8.07 17.72,3.94 46.32,10.41 50.49,11.48 4.49,1.15 4.6,3.86 0,5.91 -4.59,2.05 -5.76,0.33 -9.98,0.33 6.47,3.38 9.26,4.42 15.73,7.79 2.66,1.46 2.65,6.26 -1.38,5.72 0,0 -27.01,-6.75 -23.63,-6.75 3.37,0 20.25,14.34 20.25,14.34 1.85,2.19 1.82,6.57 -4.22,3.38 -15.49,-6.39 -23.63,-8.09 -35.44,-10.13 l -23.64,0 c 8.38,1.27 12.8,1.04 18.8,3.89 3.99,0.63 3.31,6.79 -1.39,7.09 -6.47,-0.28 -10.94,-1.41 -17.41,-1.69 -10.26,-0.73 -27.41,0.55 -32.07,-3.38 -10.28,-7.98 -12.88,-17.88 -18.56,-27.01 -40.71,-17.48 -67.58,-15.41 -104.65,-34.6 -14.07,-4.54 -28.14,-13.18 -42.2,-24.47 -6.47,-10.69 -12.94,-21.38 -19.41,-32.07 13.22,-1.97 26.44,-3.94 39.66,-5.91 z" />
        <path
           inkscape:connector-curvature="0"
           id="path3825"
           style="opacity:0.7;fill:#120e09;fill-rule:evenodd"
           d="m 668.92,416.74 c -1,-0.02 -1.98,0.03 -2.94,0.12 2.39,-0.01 4.49,0.04 6.41,0.13 -1.17,-0.14 -2.33,-0.24 -3.47,-0.25 z m 3.47,0.25 c 9.6,1.13 19.65,5.99 25.06,9.18 0.65,0.07 1.69,0.56 2.97,1.32 1.43,0.42 3.18,0.88 5.09,1.4 -5.56,-2.66 -11.15,-5.3 -16.72,-7.97 0,0 -1.15,-3.26 -16.4,-3.93 z m 28.03,10.5 c -0.65,-0.19 -1.27,-0.38 -1.75,-0.53 1.75,1.09 2.81,1.87 2.81,2.06 0.75,0.21 1.5,0.44 2.25,0.65 -1.2,-0.84 -2.32,-1.6 -3.31,-2.18 z" />
        <path
           inkscape:connector-curvature="0"
           id="path3830"
           style="fill:#483320;fill-rule:evenodd;filter:url(#filter3908)"
           d="m 683.21,433.06 -16.23,-8.62 -11.67,2.54 -8.62,-2.03 -8.12,1.52 10.65,5.58 13.7,2.54 11.16,-1.02 c 0,0 3.55,-0.51 9.13,-0.51 z" />
        <path
           inkscape:connector-curvature="0"
           id="path3912"
           style="fill:#483320;fill-rule:evenodd;filter:url(#filter3950)"
           d="m 710.59,419.88 -31.44,-11.67 c 0,0 28.4,8.62 32.46,8.62 4.06,0 4.06,3.05 4.06,3.05 l -5.08,0 z" />
        <path
           inkscape:connector-curvature="0"
           id="path3956"
           style="opacity:0.7;fill:#483320;fill-rule:evenodd;filter:url(#filter4013)"
           d="m 465.16,317.13 c -8.7,1.29 -17.42,2.61 -26.12,3.9 0.03,0.63 0.03,0.62 0.06,1.35 6.22,10.27 12.47,20.53 18.69,30.81 14.06,11.29 28.12,19.92 42.19,24.47 29.31,15.17 52.28,17.08 80.72,25.84 -0.61,-0.31 -1.27,-0.57 -1.97,-0.75 -14.21,-3.55 -46.16,-25.87 -46.16,-25.87 0,0 -9.1,-9.62 2.56,-10.63 11.67,-1.01 -5.59,-20.31 -5.59,-20.31 l -39.06,-25.85 -25.32,-2.96 z" />
        <path
           inkscape:connector-curvature="0"
           id="path4017"
           style="fill:#ffffff;fill-opacity:0.5;fill-rule:evenodd;filter:url(#filter4043)"
           d="m 551.33,369.66 16.23,13.7 c 0,0 29.42,8.11 35,21.3 5.58,13.19 15.22,24.35 15.22,24.35 l 4.05,-6.6 c 0,0 -15.21,-8.11 0.51,-13.18 15.72,-5.08 -14.2,-4.06 -14.2,-4.06 l -17.25,-21.3 c 0,0 -46.15,-24.86 -39.56,-14.21 z" />
      </g>
      <g
         transform="matrix(0.69354654,0,0,0.77500664,125.76822,51.901701)"
         id="g7103">
        <path
           d="m 134.55,624.78 c -0.49,21 2.64,44.99 6.08,58.69 -0.96,12.82 -0.48,16.64 0.04,24.55 0.52,7.91 9.01,13.11 23.84,12.27 14.83,-0.83 33.56,8.18 56.49,4.13 10.46,-32.72 20.48,-78.19 30.93,-110.91 -18.21,-7.08 -36.43,-14.16 -54.64,-21.25 -20.91,11.14 -41.82,21.39 -62.74,32.52 z"
           style="fill:#a87351;fill-rule:evenodd"
           sodipodi:nodetypes="cczzcccc"
           id="path3173"
           inkscape:connector-curvature="0" />
        <path
           d="m 183.7,635.31 c 13.78,15.13 -6.24,38.85 -18.09,47.27 17.01,10.2 3.85,19.96 2.18,28.96 23.01,16.95 12.15,3.21 17.21,3.79 0,0 25.97,0 25.97,-1.46 0,-1.46 30.06,-93.66 28.6,-93.66 -1.46,0 -60.4,4.66 -60.4,6.12 0,1.46 12.41,6.94 4.53,8.98 z"
           style="fill:#491527;fill-opacity:0.44382001;fill-rule:evenodd;filter:url(#filter4192)"
           sodipodi:nodetypes="ccccsssc"
           id="path3176"
           inkscape:connector-curvature="0" />
      </g>
      <g
         transform="matrix(0.69354654,0,0,0.77500664,125.76822,51.901701)"
         id="g5835">
        <path
           d="m 274.37,795.29 c 0,0 15.72,7.86 20.44,-9.44 4.72,-23.08 -1.18,-44.37 -6.29,-52.67 -5.11,-8.3 -8.65,-3.14 -11.01,-33.02 -2.35,-29.87 3.15,-41.66 3.15,-41.66 l -44.03,90.41 c -7.79,17.18 -2.03,43.43 1.58,43.23 6.13,-0.32 -8.23,-39.31 8.64,-20.44 0,0 3.63,16.85 3.15,15.73 -0.49,-1.12 1.82,-16.51 6.29,-16.51 l 18.08,24.37 z"
           style="fill:#000000;fill-rule:evenodd"
           sodipodi:nodetypes="cczcccsczcc"
           id="path2197"
           inkscape:connector-curvature="0" />
        <path
           d="m 286.56,780.97 c -12.64,-3.48 -18.61,-9.12 -21.29,-15.81 8.51,-7.73 13.86,-17.8 16.5,-29.89 -3.01,-4.13 -6.02,-8.26 -9.02,-12.39 -0.85,14.73 -2.75,29.35 -10.58,43.39 3.83,11.2 3.71,13.83 11.43,19.88 4.32,-1.72 8.64,-3.45 12.96,-5.18 z"
           style="fill:url(#linearGradient4880);fill-rule:evenodd"
           sodipodi:nodetypes="ccccccc"
           id="path3212"
           inkscape:connector-curvature="0" />
      </g>
      <g
         transform="matrix(0.69354654,0,0,0.77500664,125.76822,51.901701)"
         id="g6745">
        <path
           d="m 211.32,666.5 c 5.14,-11.66 11.05,-25.62 11.11,-35.36 -5.59,-4.96 -2.58,-25.05 1.42,-43.88 16.76,-11.26 21.74,-13.09 38.5,-24.36 15.98,3.15 37.43,4.46 53.41,7.61 6.29,14.92 11.43,26.53 12.85,45.11 -18.39,22.4 -32.48,29.26 -46.62,44.71 -5.5,13.36 -14.14,31.43 -19.64,44.79 -17.02,-8.91 -34.01,-29.72 -51.03,-38.62 z"
           style="fill:#d4a067;fill-rule:evenodd;stroke:#654e6a;stroke-width:1px;stroke-opacity:0.75843003"
           sodipodi:nodetypes="ccccccccc"
           id="path9730"
           inkscape:connector-curvature="0" />
        <path
           d="m 264.67,623.58 c 0,0 -41.83,-55.91 17.29,-53.09 59.13,2.81 3.22,49.07 3.22,49.07 0,0 26.55,0 31.78,-21.72 5.23,-21.72 2.81,22.93 2.81,22.93 0,0 -20.51,18.1 -38.21,34.19 -17.7,16.09 -16.49,-30.98 -16.89,-31.38 z"
           style="fill:#a26843;fill-opacity:0.70787;fill-rule:evenodd;filter:url(#filter6486)"
           id="path5435"
           inkscape:connector-curvature="0" />
        <path
           d="m 235.31,677.48 13.27,-29.76 c 0,0 -6.03,-0.41 -6.03,-14.89 0,-14.48 -21.32,16.9 -21.32,16.9 0,0 14.08,2.01 14.08,27.75 z"
           style="fill:#c08b55;fill-rule:evenodd;filter:url(#filter6622)"
           id="path5439"
           inkscape:connector-curvature="0" />
        <path
           d="m 276.77,632.54 c 0,10.11 -5.13,4.32 -12.79,4.32 -7.66,0 -18.12,4.68 -14.75,-4.84 2.74,-7.76 7.78,-10.33 14.84,-10.85 7.63,-0.57 10.47,2.21 12.7,11.37 z"
           transform="matrix(0.92141,0.38859,-0.38859,0.92141,268.44,-53.967)"
           style="fill:#854c2f;filter:url(#filter6482)"
           sodipodi:nodetypes="csssc"
           id="path5432"
           inkscape:connector-curvature="0" />
        <path
           d="m 240.94,676.27 11.26,-26.54 c 0,0 15.28,0 20.51,-12.47 5.23,-12.47 19.31,12.87 10.06,18.5 -9.25,5.63 -15.69,5.63 -15.69,5.63 0,0 14.48,1.61 3.22,7.24 -11.26,5.63 -19.71,20.11 -19.71,20.11 l -9.65,-12.47 z"
           style="fill:#5e442b;fill-rule:evenodd;filter:url(#filter6546)"
           id="path5430"
           inkscape:connector-curvature="0" />
        <path
           d="m 252.03,686.3 c 0.5,-1.64 18,-30.96 30.57,-35.06 12.57,-4.11 -20.2,25.9 -16.27,38.05 3.92,12.15 -14.97,-3.75 -14.3,-2.99 z"
           style="fill:#39311c;fill-rule:evenodd;filter:url(#filter6582)"
           id="path5437"
           inkscape:connector-curvature="0" />
        <ellipse
           transform="matrix(0.94774,-0.31904,0.31904,0.94774,-188.86,113.13)"
           style="opacity:0.67632997;fill:#ffffff;filter:url(#filter6736)"
           id="path6658"
           cx="250.89404"
           cy="633.05029"
           rx="5.5446196"
           ry="6.9307747" />
      </g>
      <g
         style="fill:#000080"
         transform="matrix(0.69354654,0,0,0.77500664,125.76822,51.901701)"
         id="g5828">
        <path
           d="m 213.01,662.35 c -2.36,6.03 -5.5,9.69 -7.86,15.72 -8.38,10.74 -19.12,23.05 -25.93,38.5 -6.71,22.05 -11.46,38.79 -22,58.93 -6.85,14.1 -13.55,22.05 -20.43,36.14 -11.13,15.91 -20.08,25.6 -27.5,32.21 -2.88,7.34 -4.19,13.1 -7.07,20.43 9.96,13.36 19.91,26.72 29.86,40.07 9.43,-11.78 18.86,-23.57 28.29,-35.35 5.76,-6.29 11.52,-12.58 17.28,-18.86 20.88,-33.45 38.74,-59.46 69.93,-88.79 5.5,-9.43 8.64,-20.43 8.64,-25.14 0,0 12.24,-25 14.15,-27.5 1.35,-1.79 0.69,-20.52 0,-21.21 -4.19,0 -20.17,-8.65 -24.36,-8.65 -9.65,-2.43 -18.1,-8.11 -33,-16.5 z"
           style="fill:#000080;fill-rule:evenodd;stroke:#0000a3;stroke-width:1px;stroke-opacity:0.46628998"
           id="path9728"
           inkscape:connector-curvature="0" />
        <path
           d="m 215.09,674.75 -5,16.94 c 15.39,12.43 37.77,23.07 53.44,29.69 2.56,-5.04 4.97,-9.71 5.72,-10.69 0.77,-1.02 0.85,-7.51 0.68,-13.06 -24.32,-4.57 -54.84,-22.88 -54.84,-22.88 z"
           style="fill:#000080;fill-rule:evenodd"
           id="path4439"
           inkscape:connector-curvature="0" />
        <path
           d="m 259.82,684.19 c -0.92,-0.14 -0.85,2.17 -1.03,3.31 -1.39,8.81 -1.02,18.4 -3.66,26.54 -1.02,3.14 -4.99,8.66 -7.31,7.31 -7.13,-4.14 -16.78,-23.61 -21.03,-23.78 -3.07,-0.13 -1.63,15.32 -0.94,22.87 1.05,11.5 10.98,18.27 9.16,22.85 -1.83,4.57 -9.16,2.75 -9.16,2.75 -6.7,0 -17.65,-3.46 -20.09,0 -2.73,3.85 4.56,14.68 4.56,21.93 0,5.25 -1.4,12.57 -4.56,15.57 -2.33,2.19 -7.95,0.2 -11.91,0 -7.94,-0.41 -19.2,-5.32 -23.78,-1.85 -4.25,3.22 -3.21,14.74 -2.72,21.94 0.42,6.22 7.87,13.63 5.47,18.31 -3.7,7.22 -16.9,10.53 -23.78,17.38 -6.99,6.94 0,10.96 0,14.62 0,3.66 -17.38,-0.9 -17.38,-0.9 -3.19,3.88 6.16,13.31 4.6,16.43 -3.63,7.27 -14.7,13.45 -15.57,20.22 -0.63,4.92 7.38,9.9 11.07,14.85 9.42,-11.79 18.85,-23.59 28.28,-35.38 5.76,-6.29 11.52,-12.56 17.28,-18.84 20.88,-33.45 38.75,-59.46 69.94,-88.78 5.5,-9.43 8.65,-20.45 8.65,-25.16 0,0 12.23,-25 14.13,-27.5 1.35,-1.79 0.69,-20.53 0,-21.22 -1.83,0 -6.46,-2.87 -10.22,-3.47 z"
           style="fill:#000080;fill-opacity:0.28652003;fill-rule:evenodd;filter:url(#filter4334)"
           sodipodi:nodetypes="csssssssssssssssssssccccsscs"
           id="path4268"
           inkscape:connector-curvature="0" />
        <path
           d="m 244.15,753.35 c 1.82,-4.34 9.6,-5.48 0.91,-14.63 -8.69,-9.14 -23.55,-17.37 -35.66,-21.94 -12.12,-4.58 -9.6,-0.69 -12.8,3.65 -3.2,4.35 2.28,5.72 0,13.72 -2.29,8 -4.58,9.6 -9.15,18.29 -4.57,8.68 -6.86,7.08 -9.14,16.46 -2.29,9.37 -3.66,18.06 0,21.03 3.66,2.97 11.66,-5.03 14.63,-9.15 2.97,-4.11 -3.89,-5.48 -2.74,-7.31 1.14,-1.83 5.25,1.14 7.31,0 2.06,-1.14 -1.83,-3.43 0.92,-4.57 2.74,-1.15 11.43,3.43 10.05,0 -1.37,-3.43 -16,-11.43 -15.54,-13.72 0.46,-2.28 11.66,5.03 17.37,4.57 5.72,-0.45 5.03,-2.51 5.49,-6.4 0.46,-3.88 -7.32,-6.86 -3.66,-9.14 3.66,-2.29 11.89,-2.97 18.29,0 6.4,2.97 3.89,9.6 7.31,11.89 3.43,2.28 4.58,1.6 6.41,-2.75 z"
           style="fill:#000080;fill-opacity:0.48876002;fill-rule:evenodd;filter:url(#filter4241)"
           sodipodi:nodetypes="csssssssssssssssssss"
           id="path4191"
           inkscape:connector-curvature="0" />
        <path
           d="m 160.93,859.42 c -2.89,-0.76 -12.49,-18.28 -12.8,-21.94 -0.3,-3.66 8.08,2.44 10.98,0 2.89,-2.44 3.04,-12.35 6.4,-14.63 3.35,-2.29 11.58,-1.07 13.71,0.91 2.14,1.98 1.37,7.93 -0.91,10.97 -2.29,3.05 -9.91,3.2 -12.8,7.32 -2.9,4.11 -1.68,18.14 -4.58,17.37 z"
           style="fill:#000080;fill-opacity:0.74156997;fill-rule:evenodd;filter:url(#filter4494)"
           sodipodi:nodetypes="czzzzzzz"
           id="path4343"
           inkscape:connector-curvature="0" />
      </g>
      <g
         transform="matrix(0.69354654,0,0,0.77500664,125.76822,51.901701)"
         id="g4264">
        <path
           d="m 33.019,916.36 c 0.637,14.93 10.22,20.44 39.308,25.94 29.083,5.5 40.093,-19.65 40.093,-19.65 7.6,-9.18 19.92,-17.56 27.52,-26.73 -3.15,-0.53 -6.29,-1.05 -9.44,-1.58 2.36,-4.19 4.72,-8.38 7.08,-12.57 l -7.86,-3.93 c 2.35,-2.63 4.71,-5.25 7.07,-7.87 -0.03,0.03 -17.08,-3.43 -32.23,-21.22 -9.732,-7.08 -7.867,23.83 -9.435,19.65 0.525,0.11 -4.595,-0.6 -33.805,15.72 -25.502,25.09 -28.883,18.62 -28.301,32.24 z"
           style="fill:#000000;fill-rule:evenodd"
           sodipodi:nodetypes="cscccccccccs"
           id="path4141"
           inkscape:connector-curvature="0" />
        <path
           d="m 95.031,868.88 c 0,0 -14.324,12.31 -29.219,12.81 l -4.781,3.75 c 11.325,3.83 28.212,4.66 47.629,-7.75 l -13.629,-8.81 z m -44.687,24.96 -2.938,2.32 c 14.285,10.15 14.219,35.25 14.219,35.25 L 77.188,936 C 73.797,911.88 61.013,899.57 50.344,893.84 Z"
           style="fill:url(#linearGradient4884);fill-rule:evenodd"
           id="path4415"
           inkscape:connector-curvature="0" />
      </g>
      <g
         transform="matrix(0.69354654,0,0,0.77500664,-1.430198,-22.60635)"
         id="g4409">
        <circle
           style="fill:#e6e6e6"
           id="path4148"
           cx="203.55269"
           cy="917.55554"
           r="68.746025" />
        <path
           transform="matrix(1.3729,0.34452,-0.2765,1.1018,199.05,-156.82)"
           style="fill:#ffffff;filter:url(#filter4320)"
           sodipodi:nodetypes="czzsz"
           d="m 171.01,890.71 c -2.28,10.76 -3.94,34.66 -18.97,33.14 -15.08,-1.52 -3.13,-25.36 1.77,-38.7 5.06,-13.79 25.27,-27.25 34.15,-19.99 12.15,9.95 -14.67,14.8 -16.95,25.55 z"
           id="path4254"
           inkscape:connector-curvature="0" />
        <path
           d="m 188.78,863.98 -0.19,0.09 -19.84,8.5 -0.19,0.09 -0.06,0.19 -9.31,23.78 c -0.06,-0.01 -0.1,-0.03 -0.16,-0.03 -0.3,0 -0.45,0.09 -0.66,0.22 -0.2,0.12 -0.42,0.29 -0.68,0.5 -0.53,0.41 -1.2,1 -1.94,1.69 -1.5,1.38 -3.36,3.23 -5.16,5.06 -3.6,3.66 -7.03,7.31 -7.03,7.31 l -0.16,0.19 0.04,0.25 3.78,22.66 0.03,0.18 0.15,0.13 c 0,0 3.9,2.95 7.72,6.12 1.91,1.59 3.82,3.21 5.19,4.57 0.69,0.67 1.24,1.28 1.59,1.75 0.18,0.23 0.32,0.45 0.38,0.59 0.03,0.07 0.06,0.1 0.06,0.12 -0.03,0.12 -0.08,0.25 0,0.44 0.08,0.2 0.34,0.36 0.5,0.38 0.33,0.03 0.46,-0.08 0.66,-0.19 0.39,-0.22 0.9,-0.6 1.53,-1.09 1.26,-1 2.98,-2.5 4.78,-4.07 1.8,-1.56 3.69,-3.17 5.22,-4.43 0.77,-0.64 1.43,-1.21 1.97,-1.6 0.54,-0.39 0.99,-0.61 1.03,-0.62 l 0.37,-0.1 -0.03,0.53 -0.03,0.35 0.35,0.12 c 0,0 5.54,2.25 12.46,4.5 6.92,2.25 15.19,4.5 20.75,4.5 l 0.22,0 0.16,-0.15 c 2.93,-3.43 5.84,-10.05 8.09,-15.85 2.23,-5.74 3.75,-10.62 3.78,-10.72 l 0.6,0.63 0.22,0.22 0.28,-0.1 25.47,-7.06 0.43,-0.12 -0.06,-0.44 -2.84,-21.22 0,-0.19 -0.16,-0.12 -19.34,-17.94 -0.16,-0.16 -0.22,0.04 -18.93,1.31 0.12,-1.25 0.03,-0.35 -0.31,-0.15 -20.31,-8.97 -0.19,-0.09 z m 0.03,1.09 19.72,8.72 -0.13,1.06 -0.31,0.03 -0.44,0.03 -0.03,0.44 -1.75,23.47 -0.09,0.75 -25.91,9.72 -8.25,-5.19 c -0.58,-0.38 -1.02,-0.67 -1.62,-1.06 -2.45,-1.6 -4.96,-3.18 -6.94,-4.38 -0.62,-0.37 -1.06,-0.64 -1.56,-0.93 l -1.38,-0.85 9.22,-23.47 19.47,-8.34 z m 39.41,9.41 19.09,17.65 2.72,20.66 -24.78,6.87 -18.5,-19.4 0.15,-1.91 2.41,-22.56 18.91,-1.31 z m -69.19,23.12 c 0.06,0 0.06,-0.01 0.03,0 -0.04,0 0.08,0.02 0.25,0.09 0.2,0.09 0.46,0.24 0.78,0.41 0.28,0.15 0.74,0.42 1.1,0.63 l 8.25,5.15 0.65,0.44 c 4.49,2.93 8.55,5.64 8.75,5.78 l -1.44,25.91 c -0.3,0.14 -0.59,0.26 -1,0.56 -0.56,0.41 -1.25,0.98 -2.03,1.62 -1.55,1.29 -3.42,2.91 -5.22,4.47 -1.79,1.57 -3.52,3.07 -4.75,4.03 -0.51,0.41 -0.89,0.67 -1.18,0.85 -0.02,-0.05 -0.01,-0.11 -0.03,-0.16 -0.12,-0.24 -0.27,-0.48 -0.47,-0.75 -0.41,-0.54 -1.02,-1.15 -1.72,-1.84 -1.41,-1.39 -3.33,-3.06 -5.25,-4.66 -3.77,-3.13 -7.41,-5.91 -7.56,-6.03 l -3.72,-22.22 c 0.16,-0.17 3.33,-3.56 6.84,-7.12 1.8,-1.83 3.65,-3.64 5.13,-5 0.73,-0.68 1.35,-1.24 1.84,-1.63 0.24,-0.19 0.48,-0.35 0.62,-0.44 0.07,-0.03 0.1,-0.08 0.13,-0.09 z m 46.62,3.38 17.47,18.87 c -0.07,0.22 -1.47,4.84 -3.65,10.47 -2.2,5.65 -5.1,12.06 -7.78,15.31 -5.3,-0.05 -13.42,-2.2 -20.22,-4.4 -6.71,-2.18 -11.82,-4.24 -12.1,-4.35 l 0.94,-26.69 25.34,-9.21 z"
           style="fill:url(#linearGradient4886);fill-rule:evenodd"
           id="path4153"
           inkscape:connector-curvature="0" />
        <path
           d="m 233.87,975.28 c -28.63,17.02 -77.27,-0.63 -91.83,-37.39 37.01,28.42 123.61,8.99 108.49,-61.87 42.45,50.68 10.08,83.36 -16.66,99.26 z"
           style="opacity:0.58937001;fill:#301300;filter:url(#filter4397)"
           sodipodi:nodetypes="cccz"
           id="path4150"
           inkscape:connector-curvature="0" />
      </g>
      <path
         inkscape:connector-curvature="0"
         id="path9751"
         sodipodi:nodetypes="cccczcccccccccccccccccc"
         style="fill:#000080;fill-rule:evenodd"
         d="m 236.99228,394.12139 c -12.24109,10.36959 -19.50253,25.80772 -15.80592,52.36719 2.10144,29.272 -1.51194,52.46796 -7.62901,78.55468 0.18032,5.4793 3.08627,14.00437 3.26659,19.48366 5.39581,5.2933 18.3027,11.8266 33.85202,6.84332 15.55624,-4.98331 19.37075,-4.8903 29.36476,-10.57109 -1.17903,-19.58443 3.21806,-25.87747 4.35547,-27.32674 18.70496,-23.02545 21.64558,-20.56093 31.9725,-23.3122 8.79416,1.47251 21.36123,-1.07726 31.57024,17.8329 1.26918,6.69606 2.2124,16.4379 3.48853,23.13395 -2.54531,3.24727 -5.09063,6.49456 -7.62901,9.74183 3.99483,-0.80601 7.98965,-1.61976 11.98448,-2.43352 5.0837,-2.98378 10.17434,-3.41778 15.25803,-14.00436 l 0,-10.9586 c -1.63678,-0.41076 -3.2666,-2.03051 -4.90337,-1.21676 1.63677,-2.84427 5.45128,-5.68856 7.0811,-8.52508 -0.18032,-2.84426 -2.19854,-7.04481 -2.37886,-9.88908 7.80933,-2.23202 14.39803,-4.68878 17.63688,-15.08163 -2.88515,-13.60136 -3.89079,-23.54471 -2.71869,-37.14607 -1.92806,-6.4093 -1.91419,-13.36886 -9.26579,-18.26691 l -23.97589,0 c -24.16317,-1.41825 -48.3194,-2.83652 -72.47562,-4.26254 -14.34948,-8.32357 -28.69897,-16.63939 -43.04844,-24.96295 z" />
      <path
         transform="matrix(0.69354654,0,0,0.77500664,125.76822,51.901701)"
         inkscape:connector-curvature="0"
         id="path8076"
         style="opacity:0.58999999;fill:#000080;fill-rule:evenodd;filter:url(#filter11175)"
         d="m 207.53,481.19 c -1.13,0.18 -5.28,2.97 -14.28,10.12 -24.74,19.66 -38.52,12.77 -44.72,6.53 19.03,21.51 58.03,15.16 58.03,15.16 0,0 -18.24,13.81 -1.97,6.91 16.27,-6.91 73.47,-11.82 73.47,-11.82 l -17.25,0 c 0,0 15.75,-31.56 4.91,-14.31 -10.85,17.26 -48.31,14.78 -48.31,14.78 0,0 32.04,-43.36 10.84,-18.22 -21.2,25.15 -40.91,13.32 -40.91,13.32 0,0 23.59,-23.03 20.19,-22.47 z m -63.09,11.12 c 0,0 1.1,2.27 3.47,4.85 -1.26,-1.49 -2.42,-3.09 -3.47,-4.85 z m 138.4,23.72 c -9.05,3.93 -18.42,7.55 -27.81,11.16 14.48,-4.92 27.83,-10.56 27.81,-11.16 z m -27.81,11.16 c -16.67,5.66 -34.81,10.35 -35.87,5.09 -0.68,-3.35 -28.62,-10.22 -32.1,-5.87 -14.76,-2.41 -29.52,-4.81 -44.28,-7.22 9.07,2.37 18.15,4.75 27.22,7.12 -14.49,1.42 -23.96,-2.52 -31.19,-9.28 -0.29,18.88 0.35,37.78 -4.34,56.66 12.27,5.08 31.84,-7.24 45.84,-16.88 -12.4,6.67 -49.39,18.96 -37.19,1.25 10.72,-4.83 21.44,-9.66 32.16,-14.5 -10.72,1.69 -38.46,16.42 -32.16,-3.78 0.85,-2.73 1.7,-5.45 2.54,-8.19 8.33,-1.7 16.64,-3.42 24.96,-5.12 0.52,0.13 1.03,0.27 1.54,0.41 16.66,0.86 34.63,0.43 42.03,11.74 -14.01,7.99 -28.03,15.96 -42.03,23.94 8.58,-3.76 17.16,-7.54 25.75,-11.31 17.29,-9.02 37.25,-16.42 57.12,-24.06 z m -29.56,15.93 c -34.98,16.97 -57.93,35.62 -84.5,64.63 6.32,-28.47 25.32,-32.07 39.78,-41.56 6.04,-3.57 -31.96,11.89 -40.22,18.5 l 4.06,5.43 -10.84,28 c 29.81,-29.02 59.57,-57.71 91.72,-75 z" />
      <path
         transform="matrix(0.69354654,0,0,0.77500664,125.76822,51.901701)"
         inkscape:connector-curvature="0"
         id="path9078"
         sodipodi:nodetypes="cccczccccccccccccccc"
         style="opacity:0.58937001;fill:url(#radialGradient4888);fill-rule:evenodd;filter:url(#filter9120)"
         d="m 186.27,534.22 c 27.85,32.21 15.39,84.51 -6.17,110.25 22.43,-6.43 27.93,-3.66 42.34,-11 -10.31,-26.49 -5.67,-71 -3.77,-72.84 26.97,-29.71 33.46,-46.51 54.57,-51.77 21.53,-5.36 60.96,5.48 75.68,29.88 14.25,26.02 -8.84,71.91 -24.61,82.26 -3.67,4.19 -6.28,5.73 -9.94,9.92 5.76,-1.04 11.52,-2.09 17.28,-3.14 7.33,-3.85 14.67,-4.41 22,-18.07 l 0,-14.14 c -2.36,-0.53 -4.71,-2.62 -7.07,-1.57 2.36,-3.67 7.86,-7.34 10.21,-11 -0.26,-3.67 -3.17,-9.09 -3.43,-12.76 11.26,-2.88 20.76,-6.05 25.43,-19.46 -4.16,-17.55 -5.61,-30.38 -3.92,-47.93 -2.78,-8.27 -2.76,-17.25 -13.36,-23.57 l -34.57,0 c -34.84,-1.83 -69.67,-3.66 -104.5,-5.5 44.07,33.12 4.96,43.71 -36.17,60.44 z" />
      <path
         inkscape:connector-curvature="0"
         id="path9757"
         sodipodi:nodetypes="ccccccccscccccccccccccccc"
         style="fill:#ff0000;fill-rule:evenodd;stroke:#0000a3;stroke-width:0.73681182px;stroke-opacity:0.47000002"
         d="m 193.42071,247.61412 c -1.11661,-6.06829 17.25267,-37.63431 19.71475,-33.04628 20.82026,-27.82273 39.11602,-38.75808 57.00953,-46.94214 7.28224,-0.95326 14.57141,-1.91427 21.86059,-2.86753 10.70141,3.03802 20.94509,-1.41315 28.71282,4.90315 19.71752,7.34707 39.43506,22.71808 59.15258,30.0574 3.57178,0.96101 7.14354,1.91427 10.7153,2.87528 10.90256,9.25357 20.56365,14.34537 30.00282,18.67765 0,0 16.71448,8.62582 17.14448,10.54009 0.43,1.91427 28.71975,38.79684 28.71975,38.79684 2.6008,10.35408 4.12661,21.60719 0.86,36.88256 -6.55402,4.58805 -7.78159,12.95811 -29.57975,6.70382 -4.71613,-6.06831 -9.42531,-12.13662 -14.14142,-18.20491 -4.71612,-0.15498 -9.43223,-0.31776 -14.14836,-0.47276 -8.2532,11.01284 -21.86373,13.92028 -21.82212,24.94088 -1.11662,21.59168 -5.86689,29.40418 -6.9835,51.00361 -5.65934,12.12886 1.71622,40.39629 0.003,56.94268 -6.23498,-2.37151 -8.29533,-2.45355 -14.53031,-4.82507 -29.14284,-1.36401 -58.28567,-2.73578 -87.42849,-4.09979 -15.79899,-2.05377 -28.6296,-10.74935 -41.54343,-19.25116 -14.59222,-23.56796 5.21942,-33.83151 12.69822,-101.98695 11.89667,-62.11733 10.32232,-52.59103 11.89667,-64.40988 2.14305,-5.27006 -25.87796,49.70408 -23.7349,44.44179 -21.25026,-41.88137 -16.89479,-23.22696 -44.57839,-30.65928 z" />
      <path
         transform="matrix(0.69354654,0,0,0.77500664,87.324901,-4.0256111)"
         inkscape:connector-curvature="0"
         id="path4653"
         style="fill:#000000;fill-opacity:0.5;fill-rule:evenodd;filter:url(#filter4785)"
         d="m 489.78,309.44 c 0,0 -23.59,17.3 -36.17,1.58 -12.58,-15.73 -33.02,-7.08 -37.73,-25.16 -4.72,-18.08 0.78,13.36 -10.22,13.36 -11.01,0 10.22,11.01 -5.51,12.58 -15.72,1.57 18.09,-1.57 24.38,2.36 6.28,3.93 18.86,17.3 25.94,18.87 7.07,1.57 29.09,12.58 39.31,-23.59 z" />
      <path
         transform="matrix(0.69354654,0,0,0.77500664,128.48235,19.29705)"
         inkscape:connector-curvature="0"
         id="path3525"
         sodipodi:nodetypes="czzzzzzzzzzzzzz"
         style="fill:#000000;fill-opacity:0.48315005;fill-rule:evenodd;filter:url(#filter3583)"
         d="m 193.63,238.75 c 6.26,-3.44 34.72,-28.2 33.12,-24.17 -1.61,4.03 -20.14,22.52 -19.7,24.17 0.45,1.64 17.46,-24.62 22.38,-14.33 4.93,10.3 -0.52,49.09 7.16,76.09 7.69,27 42.07,29.54 44.76,38.49 2.69,8.95 21.15,2.35 30.43,10.74 9.29,8.39 16.56,14.92 18.8,24.17 2.24,9.25 -2.83,26.26 -5.37,31.33 -2.53,5.07 -4.32,2.83 -9.84,-0.89 -5.52,-3.73 -13.47,-13.77 -23.28,-21.49 -9.81,-7.72 -14.32,0 -24.17,-11.63 -9.84,-11.64 -67.09,-4.97 -81.45,-32.23 -14.36,-27.26 -15.52,-62.96 -14.33,-79.67 1.2,-16.71 15.22,-17.15 21.49,-20.58 z" />
      <path
         transform="matrix(0.69354654,0,0,0.77500664,127.757,60.634629)"
         inkscape:connector-curvature="0"
         id="path5031"
         sodipodi:nodetypes="cccccc"
         style="opacity:0.67150005;fill:#787f86;fill-rule:evenodd;filter:url(#filter5435)"
         d="m 343.67,161.84 1.37,53.12 c 2.37,7.12 48.89,-13.19 87.84,-8.99 -9.73,-4.59 -36.37,-18.23 -47.35,-26.56 -5.15,-1.24 -8.96,-7.09 -14.11,-8.32 -9.25,-3.08 -18.5,-6.17 -27.75,-9.25 z" />
      <g
         transform="matrix(1.4506914,0,0,1.6210815,505.06534,-519.43247)"
         id="g4655">
        <path
           d="m -91.689038,420.89232 c 0,0 9.519713,5.9202 0.212317,16.92119 -9.307399,10.99606 -26.865539,-7.61873 -26.865539,-7.61873 l 26.653222,-9.30246 z"
           style="fill:#0a0a47;fill-rule:evenodd"
           id="path4728"
           inkscape:connector-curvature="0" />
        <path
           d="m 295.91,117.22 c 0,0 -9.84,26.39 -7.94,29.25 1.91,2.86 -7.01,7.6 -2.56,11.1 4.45,3.49 -8.9,14.94 3.81,25.75 12.71,10.8 0.31,14.31 0.31,14.31 0,0 3.21,10.48 9.88,11.44 6.67,0.95 3.47,3.81 3.47,3.81 l -10.78,-6.03 c 0,0 1.95,6.4 6.9,9.56 -3.6,-1.56 -10.2,-3.37 -4.47,6.12 4.73,4.46 9.91,9.48 14.1,13.22 4.3,1.23 6.76,-0.01 11.06,1.22 9.22,1.5 18.43,-3.76 27.66,-6.75 1.64,-1.64 3.3,-3.3 4.93,-4.94 3.28,-15.57 5.57,-31.54 8.85,-47.12 9.25,-1.71 15.89,-20.77 23.75,-33.41 -1.85,-3.95 -3.69,-7.92 -5.53,-11.87 l -83.44,-15.66 z m 3.12,99.22 c 1.85,0.8 2.9,1.51 1,0.56 -0.34,-0.17 -0.68,-0.36 -1,-0.56 z"
           style="opacity:0.96618;fill:#d4a067;fill-rule:evenodd;filter:url(#filter3736)"
           id="path3727"
           inkscape:connector-curvature="0"
           transform="matrix(0.49376102,0,0,0.49376102,-266.18912,326.20871)" />
        <path
           d="m -128.39029,406.42513 c -0.11851,11.21331 1.53559,16.91625 5.46593,27.32473 2.83419,2.52806 6.5769,6.2757 9.41108,8.80376 2.12811,0.60733 3.34277,0 5.46594,0.60733 4.55248,0.74064 9.10989,-1.86642 13.662367,-3.33783 l 2.429304,-2.4293 c 1.619536,-7.6928 2.760124,-15.5831 4.37966,-23.27096 4.56729,-0.84433 7.83105,-10.26529 11.712012,-16.50643 -4.957361,-10.62574 5.080341,-14.75148 -13.87702,-24.87869 0,0 -9.385593,-8.27364 -24.073453,-3.6602 -4.9623,5.06006 -9.91966,10.1216 -14.87702,15.18265 0.20244,6.06833 -2.33055,3.33783 -2.12811,9.41109 -3.74271,-1.92567 -0.20244,11.63795 2.42931,12.75385 z"
           style="fill:#eeb473;fill-rule:evenodd;stroke:#d46a48;stroke-width:0.49376103px"
           sodipodi:nodetypes="ccccccccccccc"
           id="path9755"
           inkscape:connector-curvature="0" />
        <path
           d="m 326.91,113.23 c 0,0 -13.98,32.72 -24.78,34.31 -10.81,1.59 9.84,12.09 9.84,12.09 0,0 10.19,3.17 0.66,7.94 -9.54,4.77 -6.38,34 -6.38,34 0,0 7.56,1.61 13.35,-1.91 1.27,-4.76 -5.72,-7.31 -5.72,-7.31 0,0 11.77,2.21 16.22,10.16 3.63,6.49 1.92,13.66 -8.25,20.65 -7.18,4.93 8.21,8.61 17.93,10.35 2.59,-1 5.17,-2.01 7.75,-2.85 1.64,-1.64 3.3,-3.26 4.94,-4.9 3.28,-15.58 5.6,-31.58 8.88,-47.16 9.25,-1.71 15.85,-20.77 23.72,-33.4 -3.8,-8.13 -7.59,-16.25 -11.38,-24.38 l -46.78,-7.59 z"
           style="opacity:0.68116;fill:#c99761;fill-rule:evenodd;filter:url(#filter3723)"
           id="path3714"
           inkscape:connector-curvature="0"
           transform="matrix(0.49376102,0,0,0.49376102,-266.18912,326.20871)" />
        <path
           d="m 374.44,119.87 -30.81,2.4 6.37,25.44 c 0,0 -12.41,-0.34 -6.69,8.56 5.72,8.9 8.6,8.91 0.97,8.91 -7.63,0 6.36,7.32 1.6,10.5 -4.77,3.18 -16.54,1.58 -8.91,11.75 7.63,10.17 18.44,3.16 10.81,36.53 -0.55,2.43 -1.19,4.66 -1.81,6.75 0.8,-0.29 1.61,-0.59 2.41,-0.84 1.64,-1.64 3.26,-3.27 4.9,-4.91 3.28,-15.58 5.6,-31.55 8.88,-47.13 9.25,-1.71 15.85,-20.8 23.72,-33.43 -3.82,-8.18 -7.63,-16.36 -11.44,-24.53 z"
           style="opacity:0.93237;fill:#bf7537;fill-rule:evenodd;filter:url(#filter3710)"
           id="path3697"
           inkscape:connector-curvature="0"
           transform="matrix(0.49376102,0,0,0.49376102,-266.18912,326.20871)" />
        <path
           d="m 285.64,159.86 c 0,0 14.08,-2.2 18.34,3.12 4.68,5.86 2.73,7.03 2.73,7.03 -2.6,1.17 -6.11,5.52 -8.58,5.07 -2.47,-0.46 -8.44,-3.73 -8.19,-5.46 0.24,-1.74 5.3,-1.78 8.97,-1.56 2.5,-3.3 -5.86,-6.63 -13.27,-8.2 z m 33.94,9.37 c 5.73,-1.83 11.12,-5.73 16.78,-4.3 5.66,1.43 11.57,2.73 17.17,4.69 -4.3,0.13 -8.59,0.26 -12.88,0.39 0,0 4.7,1.39 4.29,4.29 -0.52,3.67 -10.14,3.9 -10.14,3.9 -2.73,-2.08 -6.63,1.3 -11.31,-4.68 -3.97,4.82 1.75,11.43 5.07,15.21 -0.72,0.36 -14.98,-11.82 -12.49,-14.82 1.68,-2.02 4.3,-5.46 3.51,-4.68 z"
           style="fill:#ba7439;fill-rule:evenodd;filter:url(#filter3584)"
           sodipodi:nodetypes="cscsscccsccscccsc"
           id="path2174"
           inkscape:connector-curvature="0"
           transform="matrix(0.49376102,0,0,0.49376102,-266.18912,326.20871)" />
        <path
           d="m -120.98388,427.33097 c 0,0 2.19724,3.45139 10.0431,3.14032 7.84586,-0.31601 -2.35524,1.88123 -2.35524,1.88123 -4.75986,-0.73077 -5.75232,-2.72063 -7.68786,-5.02155 z"
           style="opacity:0.69564999;fill:#aa4400;fill-rule:evenodd"
           sodipodi:nodetypes="cscc"
           id="path3155"
           inkscape:connector-curvature="0" />
        <path
           d="m -114.84643,425.57812 c 2.56756,0.0444 5.12524,0.079 6.49296,-1.46647 l 0,-2.30587 c 1.95529,1.03196 4.99192,2.30093 5.86588,5.44619 0.87396,3.14032 0.0395,4.33028 -1.23934,6.49295 -1.60472,0.8394 -2.60212,1.67385 -4.20685,2.51325 2.04418,-1.58991 3.72296,-3.24401 3.35264,-5.23881 -2.86381,0.4197 -5.72763,0.8394 -8.5865,1.25909 -0.77027,-0.6962 -1.5356,-1.39734 -2.30587,-2.09354 3.27858,0.86901 8.02856,0.39994 10.85781,-0.30614 0.50363,-0.97764 0.75052,-1.59484 0.58757,-2.6268 -0.16294,-1.0369 -1.11096,-2.56756 -3.06625,-2.51325 -2.58237,1.68373 -5.16474,1.10603 -7.75205,0.8394 z"
           style="fill:#aa4400;fill-rule:evenodd"
           sodipodi:nodetypes="ccczcccccczcc"
           id="path2182"
           inkscape:connector-curvature="0" />
        <path
           transform="matrix(0.48499182,-0.09264932,0.09264932,0.48499182,-280.22428,356.95126)"
           style="fill:#ffffff;fill-opacity:0.84270002;fill-rule:evenodd;filter:url(#filter4466)"
           sodipodi:nodetypes="cccc"
           d="m 311.61,171.09 c 0,0 -8.64,11.52 -7.48,25.92 -8.07,2.3 -10.37,-4.61 -10.37,-4.61 6.49,-2.79 8.46,-10.82 17.85,-21.31 z"
           id="path4300"
           inkscape:connector-curvature="0" />
        <path
           d="m 323.12,237.15 c -0.89,-0.2 27.41,-11.6 25.96,-19.24 4.78,-1.52 6.58,-29.28 5.34,-28.23 0.74,10.82 0.81,21.76 -3.63,32.43 -1.01,2.41 -2.53,6.29 -4.76,8.39 -1.3,0.34 -21.46,6.98 -22.91,6.65 z"
           style="fill:#aa4400;fill-rule:evenodd;filter:url(#filter3437)"
           sodipodi:nodetypes="cccccs"
           id="path3407"
           inkscape:connector-curvature="0"
           transform="matrix(0.49376102,0,0,0.49376102,-266.18912,326.20871)" />
        <path
           d="m 338.47,194.95 c 0,0 3.76,6.37 -1.14,24.49 -1.44,5.29 11.48,-21.71 1.14,-24.49 z"
           style="opacity:0.47826006;fill:#aa4400;fill-rule:evenodd;filter:url(#filter3467)"
           sodipodi:nodetypes="csc"
           id="path3441"
           inkscape:connector-curvature="0"
           transform="matrix(0.49376102,0,0,0.49376102,-266.18912,326.20871)" />
        <path
           d="m 279.47,162.65 c -0.24,22.72 3.11,34.27 11.07,55.35 5.74,5.12 13.32,12.7 19.06,17.83 l 0.35,-4.65 c -15.58,2.26 -7.18,-52.15 -22.76,-49.9 -10.04,10.25 1.71,-73.76 -8.34,-63.52 0.41,12.3 -4.71,6.77 -4.3,19.07 -7.59,-3.9 -0.41,23.57 4.92,25.82 z"
           style="opacity:0.93720003;fill:#fff1dd;fill-rule:evenodd;filter:url(#filter3513)"
           sodipodi:nodetypes="cccccccc"
           id="path3471"
           inkscape:connector-curvature="0"
           transform="matrix(0.49376102,0,0,0.49376102,-266.18912,326.20871)" />
        <path
           d="m 278.7,160.7 c 0,0 -1.09,-18.26 -3.82,-20.16 -2.72,-1.91 4.09,20.43 3.82,20.16 z"
           style="fill:#8d7356;fill-rule:evenodd;filter:url(#filter3547)"
           id="path3517"
           inkscape:connector-curvature="0"
           transform="matrix(0.49376102,0,0,0.49376102,-266.18912,326.20871)" />
        <path
           transform="matrix(0.48493751,-0.09291595,0.09291595,0.48493751,-281.6473,357.01199)"
           style="fill:#c1793b;fill-rule:evenodd;filter:url(#filter3682)"
           d="M 294.82845,220.38505 307.03,218.72 l 24.63278,3.04895 c 0,0 -20.00278,-3.04895 -24.90278,-0.0489 -4.91,3 -11.39155,-0.78495 -11.93155,-1.33495 z"
           id="path3588"
           inkscape:connector-curvature="0"
           sodipodi:nodetypes="ccccc" />
        <path
           d="m -119.43347,404.88459 -5.64863,0.39995 c 0,-0.13332 -1.20971,0.39994 4.8438,0.26169 4.39447,-0.0938 5.30793,2.1923 5.43137,2.59225 -0.0148,-0.0938 -0.0296,-0.28145 -0.0444,-0.56783 -0.13331,-2.28611 -4.5821,-2.68606 -4.5821,-2.68606 z m 18.48641,2.51324 c -0.44932,0.0148 -0.72583,0.0346 -0.72583,0.0346 l -6.46827,1.21465 c 0.13826,0 -0.26663,0.79989 5.78688,-0.27651 6.053514,-1.0764 9.149396,1.89111 7.129913,0.27651 -1.510909,-1.20971 -4.37966,-1.28378 -5.722693,-1.24922 z"
           style="fill:#000000;fill-rule:evenodd"
           id="path3686"
           inkscape:connector-curvature="0" />
        <path
           d="m 331.78,118.09 -25.34,2.88 c 0,0 21.32,21.89 -14.97,26.5 0,0 11.51,4.61 14.97,9.22 3.45,4.61 36.84,0 36.84,0 0,0 -3.44,-7.51 4.63,-8.66 8.06,-1.15 -16.13,-29.94 -16.13,-29.94 z m 40,28.75 c -0.26,0.01 -0.54,0.03 -0.84,0.07 -9.79,1.15 -9.78,27.06 -9.78,27.06 l 5.18,-12.09 c 0,0 13.5,-15.14 5.44,-15.04 z"
           style="opacity:0.85024001;fill:#464646;fill-opacity:0.5;fill-rule:evenodd;filter:url(#filter4822)"
           id="path4298"
           inkscape:connector-curvature="0"
           transform="matrix(0.49376102,0,0,0.49376102,-274.68912,326.20871)" />
      </g>
      <path
         transform="matrix(0.71629487,0,0,0.80042685,117.45638,6.1362679)"
         d="m 297.91,167.59 c -3.75,-0.09 -7.69,1.41 -7.69,1.41 3.12,3.94 6.44,5.16 8.98,5.01 -2.24,-3.62 1.26,-5.46 3.76,-1.74 0.78,-1.02 0.76,-2.3 -0.46,-3.27 -1.24,-0.99 -2.89,-1.36 -4.59,-1.41 z m 34.18,3.41 c -2.09,0.04 -4.1,0.44 -5.62,1.47 -3.59,2.43 1.28,6.66 7.79,4.74 -4.2,-5.78 4.09,-4.61 4.26,-2.1 -12.83,7.2 -4.91,2.38 3.01,-2.64 0,0 -4.84,-1.57 -9.44,-1.47 z"
         style="opacity:0.67632997;fill:#010101;fill-rule:evenodd;filter:url(#filter4918)"
         sodipodi:nodetypes="csccsccccccc"
         id="path4861"
         inkscape:connector-curvature="0" />
      <path
         transform="matrix(0.53625794,0,0,0.79446473,165.19033,81.846983)"
         inkscape:connector-curvature="0"
         id="path4613"
         style="fill:#000000;fill-opacity:0.5;fill-rule:evenodd;filter:url(#filter4725)"
         d="m 204.4,341.68 33.02,14.15 c 0,0 36.95,4.71 61.32,12.57 24.37,7.87 51.89,1.58 57.39,7.87 5.5,6.29 -54.25,-0.79 -54.25,-0.79 L 238.21,361.33 204.4,341.68 Z m 94.34,-13.37 c 0,0 51.1,-0.79 58.96,7.08 7.86,7.86 -8.65,2.35 -8.65,2.35 0,0 -18.86,-9.43 -50.31,-9.43 z M 261,450.17 c 0,0 56.61,-11.8 69.97,-22.8 13.37,-11.01 -3.93,18.08 -69.97,22.8 z M 238.21,344.82 c 0,0 47.17,-9.43 59.74,-5.5 12.58,3.93 54.25,15.72 73.9,9.43 19.66,-6.29 -34.59,8.65 -34.59,8.65 0,0 -17.29,-14.94 -45.6,-12.58 -28.3,2.36 -11,-8.65 -53.45,0 z m 6.29,62.89 c 0,0 49.52,0 64.46,7.86 14.94,7.87 -22.01,-5.5 30.66,-9.43 52.67,-3.93 -50.31,3.93 -95.12,1.57 z m -73.12,-77.04 c 0,0 -10.22,-7.08 -9.43,24.37 0.78,31.45 -11.79,11.79 -11.79,11.79 0,0 0.78,-47.17 21.22,-36.16 z m -14.93,70.75 25.94,13.37 c 0,0 -22.8,-11.79 -24.37,8.65 -1.57,20.44 -3.15,-21.23 -1.57,-22.02 z m 11,-22.01 29.88,-1.57 c 0,0 17.29,14.15 36.16,14.15 18.87,0 102.2,12.58 126.57,0.79 24.37,-11.8 -6.29,11 -61.32,9.43 -55.03,-1.57 -77.04,-1.57 -84.9,-8.65 -7.87,-7.07 -14.16,-14.94 -46.39,-14.15 z m 162.74,80.19 c 0,0 14.15,-13.37 32.23,-13.37 18.08,0 23.58,-19.65 23.58,-19.65 0,0 0.79,20.44 -25.94,26.73 -26.73,6.29 0.79,-8.65 -29.87,6.29 z M 329.4,300.8 c 0,0 22.01,-24.38 37.74,-18.09 15.72,6.29 -22.8,-2.36 -37.74,18.09 z m -0.79,14.93 c 0,0 21.23,-25.94 55.04,-15.72 33.8,10.22 -25.95,-10.22 -55.04,15.72 z M 205.97,291.36 c 0,0 29.09,9.44 29.88,21.23 0.78,11.79 -10.22,-12.58 -29.88,-21.23 z m 46.39,11.01 c 0,0 36.16,6.29 36.16,11.79 0,5.5 -36.16,-11.79 -36.16,-11.79 z m 91.98,-55.03 47.17,6.29 11,16.5 -3.14,-14.93 14.15,-0.79 c 0,0 -29.09,-14.94 -69.18,-7.07 z M 209.9,409.28 c 0,0 55.82,18.87 84.91,14.16 29.09,-4.72 -23.59,9.43 -63.68,-2.36 -40.09,-11.8 35.38,14.15 49.53,13.36 14.15,-0.78 -48.74,3.15 -62.89,-8.65 -14.16,-11.79 -30.66,-27.51 -30.66,-27.51 0,0 11.79,2.36 22.79,11 z M 244.5,158.5 c 0,0 10.22,48.74 21.22,56.6 11.01,7.87 0,-34.59 -21.22,-56.6 z m 124.99,37.74 c 0,0 8.65,11.79 -3.14,22.01 -11.79,10.22 17.3,4.72 3.14,-22.01 z m 10.22,91.19 c 0,0 38.24,-4.08 12.58,38.52 -10.22,50.32 14.94,-23.58 14.94,-23.58 0,0 3.93,-25.16 -15.72,-25.16 17.29,13.36 9.43,11.01 9.43,11.01 -7.07,-0.27 -14.15,-7.6 -21.23,-0.79 z M 201.26,250.48 c 0,0 15.72,-21.23 24.37,-22.8 8.65,-1.57 -16.51,18.87 -16.51,18.87 l 6.29,3.14 c 0,0 31.44,-25.94 39.31,-26.72 7.86,-0.79 -57.39,44.02 -57.39,44.02 l 3.93,-16.51 z m 78.61,-36.95 c 0,0 18.08,42.45 8.65,68.4 8.65,-44.81 1.57,-59.75 -5.5,-67.61 -7.08,-7.86 -1.58,0 -3.15,-0.79 z" />
      <path
         inkscape:connector-curvature="0"
         id="path4615"
         d="m 262.82061,541.99042 c -1.79108,-2.00144 -1.79455,-1.72719 0.1585,-12.56339 1.30616,-7.24698 1.61145,-11.7293 1.63091,-23.94557 0.021,-13.21511 -0.13593,-15.30248 -1.30053,-17.28949 -0.72845,-1.2429 -1.12906,-2.82887 -0.89023,-3.52436 0.23884,-0.69549 -0.1294,-2.21619 -0.81822,-3.37932 -1.70365,-2.87658 -2.08206,-12.65903 -0.58824,-15.20665 0.59535,-1.01535 1.08246,-2.77079 1.08246,-3.90096 0,-1.13018 0.24481,-2.06221 0.54401,-2.07117 3.81935,-0.11445 10.87143,-2.03696 15.11379,-4.12031 5.47448,-2.68845 6.74292,-4.1563 5.28637,-6.11747 -1.03,-1.38685 -1.39092,-1.11351 5.16828,-3.91438 3.33906,-1.42582 6.42057,-3.41247 7.9788,-5.14395 2.87633,-3.19612 6.62136,-5.22398 8.31016,-4.49981 0.6258,0.26834 1.59496,0.0639 2.15371,-0.45426 0.55875,-0.51818 1.86021,-1.11323 2.89214,-1.32233 2.27992,-0.462 2.36543,0.43385 0.68151,7.1402 -1.04959,4.18003 -1.53952,4.9547 -4.0324,6.37585 -3.55722,2.0279 -6.27491,5.36441 -9.76462,11.988 -1.50212,2.85106 -3.0748,5.58664 -3.49485,6.07906 -0.42005,0.4924 -3.6061,5.20146 -7.08013,10.46455 -4.12952,6.25616 -6.69833,11.00638 -7.41953,13.72018 -1.58103,5.94922 -2.80881,25.41366 -2.277,36.09805 0.54976,11.04514 -0.27594,14.18111 -4.21867,16.02198 -3.62103,1.69065 -7.37456,1.51178 -9.11622,-0.43445 z"
         style="fill:#000080" />
      <path
         sodipodi:nodetypes="acsssssaa"
         inkscape:connector-curvature="0"
         id="path4617"
         d="m 273.92896,172.46448 c -5.7557,-6.03245 -22.73461,7.37633 -22.73461,7.37633 0,0 44.24609,-34.04271 0,0 -44.24609,34.04271 20.69723,-18.43026 -44.24609,31.61109 -19.2057,14.79874 -14.50691,38.09541 -6.52811,36.47433 3.9894,-0.81054 7.07212,1.21581 9.7015,-0.81054 2.62938,-2.02635 -5.34943,-2.43162 11.33352,6.48433 33.36591,17.83189 29.21676,0.003 38.44333,-10.53703 15.08524,-17.23212 29.76504,-54.10741 14.03046,-70.59851 z"
         style="fill:#000080;fill-rule:evenodd;stroke:#000000;stroke-width:1.53352177px;stroke-linecap:butt;stroke-linejoin:miter;stroke-opacity:1" />
      <g
         transform="matrix(0.69354654,0,0,0.77500664,108.17267,73.603281)"
         id="g4565">
        <path
           inkscape:connector-curvature="0"
           id="path2479"
           style="fill:#191ab4;fill-opacity:0.4;fill-rule:evenodd"
           d="m 147.01,204.88 c 0,0 -23.98,-12.18 -41.27,23.59 -17.297,35.77 55.82,-23.98 41.27,-23.59 z" />
        <g
           id="g3511"
           transform="translate(3.3592,-22.821)">
          <path
             inkscape:connector-curvature="0"
             id="path3157"
             sodipodi:nodetypes="cccsccccccsccscsc"
             style="fill:#d4a067;fill-rule:evenodd;stroke:#b88564;stroke-width:1px"
             d="m 102.47,251.26 c -9.867,3.38 -12.439,4.73 -22.925,14.21 -4.235,9.79 -7.683,19.57 -1.834,29.35 11.346,-1.81 19.206,14.91 38.519,8.26 11.25,-3.87 20.48,-12.84 35.77,-16.97 2.58,1.1 6.49,-3.03 13.26,4.99 2.38,0.56 6.62,5.47 11.14,-2.51 1.76,0.15 6.16,-6.08 8.42,-5.17 1.84,0.74 5.08,1.29 6.74,-0.42 1.11,2.08 7.68,3.29 10.27,1 3.21,0.3 3.43,1.39 5.66,2.02 1.76,0.5 3.29,-0.86 3.49,-4.38 -0.06,-8.87 -2.55,-13.6 -8.08,-21.67 -6.72,-3.82 -15.43,-12.58 -22.33,-10.85 -8.8,2.22 -16.19,1.3 -25.36,8.1 0.78,-20.11 -5.29,-29.23 -14.65,-30.02 -10.3,-0.87 -13.11,17.51 -38.09,24.06 z" />
          <path
             inkscape:connector-curvature="0"
             id="path6168"
             style="opacity:0.45894003;fill:#000000;fill-opacity:0.82584001;fill-rule:evenodd;filter:url(#filter6225)"
             d="m 137.64,279.64 c -0.93,0 -2.67,0.47 -5.34,1.53 -28.08,11.16 -44.899,13.33 -54.753,12.66 0.152,0.28 0.27,0.56 0.437,0.84 9.841,-1.57 17.062,10.81 31.406,9.78 18.42,-13.44 32.7,-24.8 28.25,-24.81 z" />
          <path
             inkscape:connector-curvature="0"
             id="path2344"
             sodipodi:nodetypes="cscscccc"
             style="opacity:0.45894003;fill:#000000;fill-opacity:0.87639998;fill-rule:evenodd;stroke:#000000;stroke-width:1px;filter:url(#filter3350)"
             d="m 171.86,272.75 c -0.26,0.02 -0.53,0.08 -0.78,0.22 -4,2.15 -7.3,0.62 -7.3,0.62 0.27,-0.36 8.01,5.43 9.46,11.1 0.39,1.54 1.7,3 1.91,5.06 0.28,-0.4 0.57,-0.84 0.84,-1.31 2.77,0.24 5.74,-3.85 8.59,-5.44 -4.89,-2.86 -9.41,-10.54 -12.72,-10.25 z" />
          <path
             inkscape:connector-curvature="0"
             id="path3356"
             style="opacity:0.70531;fill:#2f2826;fill-rule:evenodd;filter:url(#filter3385)"
             d="m 153.08,238.64 c -15.33,0.21 -40.27,14 -32.19,14 8.62,0 20.01,8.04 24.94,8.04 4.92,0 9.25,-2.16 9.25,-2.16 0.31,0 1.47,-1.22 2.81,-3 -0.93,0.54 -1.85,1.15 -2.78,1.84 0.3,-7.88 -0.45,-14.05 -2.03,-18.72 z" />
          <path
             inkscape:connector-curvature="0"
             id="path2348"
             style="fill:#553526;fill-rule:evenodd;filter:url(#filter3346)"
             d="m 170.77,261.58 c 0,0 14.16,2.47 16.62,6.78 2.47,4.31 5.22,7.69 5.22,7.69 0,0 1.37,4.08 -1.03,6.38 0.74,0.25 1.52,0.56 2.28,0.87 0.42,-2.21 0.81,-4.42 1.22,-6.62 -1.64,-4.83 -5.46,-8.93 -9.53,-12.94 -4.93,-0.72 -9.86,-1.44 -14.78,-2.16 z" />
          <path
             inkscape:connector-curvature="0"
             id="path3350"
             d="m 183.03,254.83 c 8.99,1.49 16.49,4.24 18.02,15.45 -1.66,0 2.32,6.54 -2.22,7.85 0.74,0.26 4.38,-0.91 5.14,-0.6 0.42,-2.2 -0.86,-4.42 -0.45,-6.62 -5.33,-16.38 -9.46,-10.51 -20.49,-16.08 z"
             sodipodi:nodetypes="cccccc"
             style="fill:#553526;fill-rule:evenodd;filter:url(#filter3346)"
             transform="matrix(1.2913,0,0,1.2552,-57.3,-64.657)" />
          <path
             inkscape:connector-curvature="0"
             id="path3354"
             sodipodi:nodetypes="cccccccc"
             style="fill:#55402a;fill-rule:evenodd;filter:url(#filter3416)"
             d="m 135.53,279.74 c 0,0 2.58,5.66 7.77,9.63 0.93,-0.3 7.78,-2.83 8.76,-3.1 0.67,0.33 1.15,0.58 1.65,0.85 -0.01,-0.18 7.01,-0.63 7.01,-0.6 l -5.15,-5.82 -8.57,5.36 -11.47,-6.32 z" />
          <path
             inkscape:connector-curvature="0"
             id="path3420"
             style="fill:url(#linearGradient4890);fill-rule:evenodd"
             d="m 202.09,276.05 0.42,6.14 c 0,0 -0.52,-1.24 -4.48,-1.87 -3.95,-0.62 -1.04,-3.85 -1.04,-3.85 l 5.1,-0.42 z" />
          <path
             inkscape:connector-curvature="0"
             id="path3430"
             style="fill:url(#linearGradient4892);fill-rule:evenodd"
             d="m 190.07,271.88 4.03,7.67 c 0,0 -1.4,-1.32 -7.02,0.04 -5.62,1.36 -3.57,-4.38 -3.57,-4.38 l 6.56,-3.33 z" />
          <path
             inkscape:connector-curvature="0"
             id="path3434"
             inkscape:transform-center-x="-26.424508"
             inkscape:transform-center-y="-6.7859485"
             style="fill:url(#linearGradient4894);fill-rule:evenodd"
             d="m 172.77,283.47 2.07,6.83 c 0,0 -0.98,-1.3 -6.23,-1.21 -5.24,0.1 -2.3,-4.12 -2.3,-4.12 l 6.46,-1.5 z" />
          <path
             inkscape:connector-curvature="0"
             id="path3438"
             style="fill:url(#linearGradient4896);fill-rule:evenodd"
             d="m 210.89,277.49 -0.21,6.15 c 0,0 -0.39,-1.3 -4.26,-2.32 -3.87,-1.02 -0.65,-3.93 -0.65,-3.93 l 5.12,0.1 z" />
          <path
             inkscape:connector-curvature="0"
             id="path3442"
             style="fill:#9f7457;fill-rule:evenodd;filter:url(#filter3507)"
             d="m 169.94,254.72 -2.02,2.88 6.62,-0.29 -4.6,-2.59 z m -10.35,6.62 -1.73,4.02 6.33,-0.29 -4.6,-3.73 z m -9.49,9.77 -1.44,3.17 5.17,0.28 -3.73,-3.45 z m -33.93,2.59 20.41,-0.86 c 0,0 0.86,-4.32 6.62,-7.19 5.75,-2.88 -16.97,8.05 -27.03,8.05 z" />
        </g>
        <path
           inkscape:connector-curvature="0"
           id="path3541"
           sodipodi:nodetypes="ccccsc"
           style="fill:#5f4b39;fill-opacity:0.5;fill-rule:evenodd"
           d="m 142.84,204.14 c -8.18,0.25 -11.88,13.08 -27.97,20.75 l 0.22,0.47 c 0,0 18.99,-11.8 43.35,2.63 -0.61,-15.78 -6.33,-23.11 -14.66,-23.82 -0.32,-0.02 -0.63,-0.04 -0.94,-0.03 z" />
      </g>
      <path
         sodipodi:nodetypes="cssssssssssscc"
         inkscape:connector-curvature="0"
         id="path4737"
         d="m 364.76551,194.18982 c 28.132,7.30185 -6.22625,-10.98177 -8.03961,19.00824 -1.81337,29.99001 -2.17604,11.34757 -5.4401,35.66379 -3.26405,24.31623 11.24286,9.72649 -1.81336,38.50069 -13.05622,28.7742 -10.51751,21.8846 -18.13364,49.03772 -7.61613,27.15311 -5.07742,17.83189 -7.25346,39.71649 -2.17604,21.8846 -23.93641,-3.24216 -7.25346,21.8846 16.68295,25.12677 -3.26405,27.55839 31.91521,25.93731 35.17927,-1.62108 26.47512,55.11677 35.90461,-31.61109 9.4295,-86.72786 -8.25468,-66.65195 15.77094,-88.59828 23.29906,-21.28266 16.86962,-7.04553 25.2111,-43.11459 8.34147,-36.06907 18.15624,-29.05233 1.08802,-44.17448 -7.64364,-6.77213 -46.66805,-43.12381 -46.66805,-43.12381 -26.49562,24.15663 0,0 -15.2882,20.87341 z"
         style="fill:#000080;fill-rule:evenodd;stroke:#000000;stroke-width:1.53352177px;stroke-linecap:butt;stroke-linejoin:miter;stroke-opacity:1" />
    </g>
  </g>
</svg>
